<?xml version="1.0" standalone="no"?>
<!DOCTYPE svg PUBLIC "-//W3C//DTD SVG 20010904//EN"
 "http://www.w3.org/TR/2001/REC-SVG-20010904/DTD/svg10.dtd">
<svg version="1.0" xmlns="http://www.w3.org/2000/svg"
 width="1600.000000pt" height="1200.000000pt" viewBox="0 0 1600.000000 1200.000000"
 preserveAspectRatio="xMidYMid meet">

<g transform="translate(0.000000,1200.000000) scale(0.100000,-0.100000)"
fill="#000000" stroke="none">
<path d="M0 6000 l0 -6000 8000 0 8000 0 0 6000 0 6000 -8000 0 -8000 0 0
-6000z m9600 2488 c25 -11 90 -50 145 -86 362 -240 662 -568 880 -960 73 -132
148 -300 141 -319 -4 -10 -22 -13 -73 -11 l-67 3 -81 161 c-137 273 -292 489
-510 706 -158 158 -321 284 -565 436 -18 12 -21 17 -10 20 19 7 34 22 48 48
14 27 36 27 92 2z m-4235 -933 c138 -11 315 -54 515 -128 445 -163 823 -459
970 -762 62 -126 77 -204 62 -311 -30 -216 -201 -395 -455 -478 -171 -56 -405
-72 -592 -41 -118 19 -115 19 -115 -13 0 -62 -66 -98 -131 -72 -38 16 -51 39
-64 120 l-11 65 -65 35 c-198 106 -367 250 -425 362 -33 65 -13 143 48 190 75
57 242 122 381 148 50 9 67 16 67 29 0 41 22 242 32 294 6 32 18 68 27 79 17
20 17 20 49 -7 42 -35 72 -134 81 -263 l6 -97 130 -6 c205 -10 378 -59 458
-130 53 -46 83 -112 73 -160 -20 -104 -164 -172 -241 -115 -16 12 -14 16 25
42 62 42 71 60 42 85 -13 10 -47 26 -75 34 -68 20 -255 52 -339 58 l-68 5 0
-223 c0 -122 3 -236 6 -253 8 -39 20 -41 210 -49 710 -27 962 413 499 872
-281 279 -737 483 -1199 536 -171 20 -476 -1 -476 -32 0 -5 11 -9 25 -9 36 0
75 -21 75 -41 0 -21 -20 -29 -74 -29 -62 0 -105 18 -112 46 -8 32 30 109 70
138 40 31 138 60 246 75 139 19 170 19 345 6z m2005 -170 c48 -33 49 -34 105
-61 128 -62 110 -209 -41 -338 -126 -108 -242 -152 -374 -143 -77 5 -78 5 -99
-24 -26 -35 -35 -36 -66 -4 -18 17 -25 35 -25 62 0 21 -14 64 -30 98 -37 73
-38 122 -5 193 88 189 395 314 535 217z m3452 -475 c9 -44 35 -234 43 -322 l7
-68 199 0 c119 0 208 -4 220 -10 15 -9 19 -22 19 -70 0 -48 -4 -61 -19 -70
-12 -6 -99 -10 -214 -10 l-193 0 -11 -192 c-7 -106 -15 -201 -18 -211 -6 -15
-18 -17 -74 -15 l-66 3 4 208 4 207 -196 0 c-107 0 -202 3 -211 6 -20 8 -23
123 -4 142 9 9 69 12 211 12 l198 0 -5 43 c-3 23 -8 69 -11 102 -3 33 -13 104
-22 157 -8 53 -13 104 -9 113 5 13 19 15 73 13 l67 -3 8 -35z m-2283 -127
c100 -101 149 -230 158 -418 10 -219 -49 -355 -154 -355 -67 0 -132 77 -248
294 -67 125 -73 124 -75 -9 -1 -131 -18 -276 -35 -302 -23 -35 -90 -29 -118 9
-41 55 -31 322 19 514 20 78 43 123 75 146 21 16 30 17 51 8 43 -20 118 -120
243 -323 93 -152 104 -131 55 105 -16 79 -41 181 -55 228 -50 172 -21 208 84
103z m1135 -87 c-7 -44 -33 -101 -94 -206 -42 -72 -73 -166 -68 -205 3 -23 11
-14 68 67 91 129 230 270 300 302 30 14 69 26 85 26 44 0 91 -33 117 -82 19
-37 23 -58 23 -148 0 -128 -16 -180 -85 -278 -98 -139 -220 -216 -342 -217
l-68 0 -20 -48 c-54 -126 -112 -338 -140 -512 -16 -102 -40 -119 -99 -69 -109
92 -118 248 -30 514 17 52 47 128 65 169 l35 75 -22 50 c-18 42 -21 64 -17
145 4 80 10 109 37 173 39 93 110 196 180 261 44 41 54 47 67 36 11 -9 13 -23
8 -53z m-1789 24 c68 -15 119 -41 123 -63 2 -9 -10 -30 -26 -46 -33 -33 -47
-35 -322 -51 -218 -12 -322 -34 -281 -59 7 -5 81 -16 165 -26 311 -35 372 -57
419 -150 58 -117 9 -258 -112 -319 -99 -51 -252 -58 -371 -19 -80 26 -168 89
-198 143 -21 37 -24 52 -18 84 15 78 87 116 217 116 123 0 299 -49 299 -83 0
-24 -38 -49 -95 -62 -61 -15 -88 -10 -207 34 -71 26 -99 26 -129 3 -27 -22
-21 -43 18 -69 22 -15 48 -18 148 -18 73 0 140 6 170 14 70 20 141 57 159 82
44 63 -68 104 -349 128 -71 7 -151 17 -177 22 -147 33 -122 205 41 289 119 60
371 84 526 50z m1450 -21 c40 -35 65 -77 65 -108 0 -15 -10 -23 -37 -30 -34
-9 -251 -31 -301 -31 -13 0 -22 -11 -30 -39 -7 -21 -12 -41 -12 -44 0 -4 51
-8 113 -9 l112 -3 0 -60 c0 -58 -1 -60 -30 -66 -16 -4 -71 -7 -122 -8 -127 -1
-136 -6 -156 -81 -10 -35 -16 -64 -15 -66 2 -1 72 9 156 23 143 24 153 25 177
9 35 -23 50 -63 34 -94 -15 -27 -125 -103 -196 -134 -62 -27 -139 -48 -182
-48 -50 0 -116 43 -147 96 -25 42 -26 52 -21 122 3 42 12 96 21 120 13 35 13
52 4 92 -13 56 -4 74 40 83 21 4 33 18 55 62 25 51 26 56 10 61 -56 18 -76 29
-93 54 -25 35 -25 56 -2 69 45 24 291 58 429 60 90 1 93 0 128 -30z m-2226
-17 c21 -20 31 -44 40 -92 15 -83 31 -331 31 -483 0 -113 -1 -119 -26 -144
-22 -21 -32 -25 -66 -20 -58 8 -77 31 -90 113 -14 87 -3 419 16 527 14 77 37
127 57 127 6 0 23 -12 38 -28z m-2173 -1562 c37 -14 87 -63 105 -105 16 -33
19 -66 19 -201 l0 -160 49 47 c182 175 547 104 665 -130 53 -103 56 -136 56
-533 l0 -368 -104 0 -105 0 -3 368 c-3 361 -3 368 -27 419 -27 62 -82 115
-137 134 -61 21 -173 16 -228 -10 -57 -28 -115 -93 -141 -157 -17 -45 -19 -80
-23 -401 l-3 -353 -105 0 -104 0 0 736 0 736 33 -7 c17 -4 41 -11 53 -15z
m2714 -165 l0 -185 90 0 90 0 0 -95 0 -95 -90 0 -90 0 0 -455 0 -455 -33 0
c-53 0 -120 49 -151 111 l-26 53 0 373 0 373 -40 0 -40 0 0 95 0 95 40 0 40 0
0 185 0 185 105 0 105 0 0 -185z m1430 0 l0 -184 93 -3 92 -3 3 -92 3 -92 -93
-3 -93 -3 -3 -454 -2 -454 -41 6 c-48 6 -104 48 -134 98 -19 32 -20 57 -25
419 l-5 385 -42 3 -43 3 0 95 0 94 45 0 45 0 0 185 0 185 100 0 100 0 0 -185z
m-2344 -170 c185 -39 330 -148 409 -309 114 -232 71 -483 -115 -667 -112 -111
-257 -169 -420 -169 -168 0 -292 52 -416 175 -155 153 -208 341 -154 551 46
180 191 336 366 394 124 41 215 48 330 25z m1688 -15 c106 -40 196 -162 196
-266 l0 -35 -101 3 -101 3 -13 38 c-18 52 -41 75 -87 87 -121 33 -219 -93
-140 -180 20 -23 58 -42 152 -75 69 -25 149 -61 179 -82 138 -95 181 -278 102
-438 -57 -115 -155 -174 -302 -183 -153 -8 -280 49 -354 161 -34 52 -65 146
-65 199 l0 28 103 0 102 0 13 -52 c22 -95 71 -140 159 -145 99 -7 173 53 173
139 0 81 -44 121 -190 174 -236 84 -320 178 -308 345 14 185 172 318 364 305
33 -3 86 -15 118 -26z m1576 19 c89 -14 180 -60 240 -121 l50 -51 0 77 0 76
105 0 105 0 0 -550 0 -550 -105 0 -105 0 0 81 0 80 -54 -58 c-93 -100 -202
-139 -361 -130 -110 6 -202 34 -283 86 -162 105 -250 254 -259 441 -20 393
290 680 667 619z m1240 -99 c0 -108 0 -110 -23 -110 -53 0 -125 -31 -165 -70
-70 -70 -75 -97 -81 -422 l-6 -286 -30 -44 c-36 -50 -96 -88 -142 -88 l-33 0
0 550 0 550 100 0 100 0 0 -46 0 -46 37 32 c56 49 136 80 231 89 9 1 12 -27
12 -109z"/>
<path d="M5470 6503 c-172 -18 -335 -59 -365 -93 -16 -18 -16 -21 5 -55 47
-76 262 -221 399 -270 l36 -12 -3 216 c-3 240 3 222 -72 214z"/>
<path d="M7057 7241 c-94 -48 -156 -125 -143 -177 6 -23 11 -19 66 50 32 41
75 87 94 103 56 44 47 57 -17 24z"/>
<path d="M7345 7234 c-21 -7 -62 -29 -91 -50 -54 -37 -164 -147 -184 -184 -10
-19 -8 -20 55 -20 156 0 325 104 325 200 0 57 -39 77 -105 54z"/>
<path d="M9932 6484 c-81 -84 -232 -297 -232 -326 0 -12 46 0 112 29 65 29
134 96 168 163 30 59 38 151 16 169 -15 12 -22 8 -64 -35z"/>
<path d="M6540 4599 c-113 -22 -217 -105 -272 -217 -31 -62 -33 -74 -33 -167
0 -93 2 -105 32 -166 39 -80 111 -150 191 -187 49 -23 70 -27 152 -27 86 0
101 3 162 32 85 40 151 106 191 191 29 61 32 76 32 162 0 85 -3 102 -31 160
-54 114 -160 197 -283 220 -61 11 -78 11 -141 -1z"/>
<path d="M9841 4600 c-113 -24 -203 -96 -258 -208 -36 -73 -38 -80 -38 -176 0
-92 3 -107 31 -166 38 -80 105 -149 182 -187 50 -25 68 -28 152 -28 83 0 103
4 156 28 77 36 154 113 191 192 25 54 28 71 28 165 0 99 -2 110 -33 172 -75
153 -248 241 -411 208z"/>
</g>
</svg>
